<?xml version="1.0" encoding="UTF-8"?>
<svg version="1.1" xmlns="http://www.w3.org/2000/svg" width="96" height="96">
<path d="M0 0 C0.69641602 -0.00700928 1.39283203 -0.01401855 2.11035156 -0.02124023 C4.40730932 -0.03881383 6.70303021 -0.02720107 9 -0.01367188 C10.59896073 -0.01636701 12.19791987 -0.0202496 13.796875 -0.02526855 C17.14599226 -0.03116269 20.49468243 -0.0226038 23.84375 -0.00390625 C28.13478591 0.01888377 32.42482111 0.00576017 36.71582031 -0.01819611 C40.01700366 -0.03265667 43.31795011 -0.02804703 46.61914062 -0.01768494 C48.20117308 -0.01501834 49.78322711 -0.0182851 51.36523438 -0.02760315 C53.57740163 -0.03777366 55.787953 -0.02226378 58 0 C59.8871875 0.00477356 59.8871875 0.00477356 61.8125 0.00964355 C65 0.51757812 65 0.51757812 67.40515137 2.25012207 C69.24515796 4.86612838 69.50545563 6.14603248 69.51757812 9.31445312 C69.53018677 10.26223633 69.54279541 11.21001953 69.55578613 12.18652344 C69.54768921 13.20327148 69.53959229 14.22001953 69.53125 15.26757812 C69.53699036 16.84297363 69.53699036 16.84297363 69.54284668 18.45019531 C69.54556696 20.66928059 69.53819777 22.88839787 69.52148438 25.10742188 C69.50007745 28.50528408 69.52128325 31.90103174 69.546875 35.29882812 C69.54423175 37.4550828 69.53910682 39.61133615 69.53125 41.76757812 C69.53934692 42.78432617 69.54744385 43.80107422 69.55578613 44.84863281 C69.54317749 45.79641602 69.53056885 46.74419922 69.51757812 47.72070312 C69.51439575 48.5524707 69.51121338 49.38423828 69.50793457 50.24121094 C68.78892327 53.46354278 67.66945909 54.59464086 65 56.51757812 C61.8125 57.0255127 61.8125 57.0255127 58 57.03515625 C56.95537598 57.04567017 56.95537598 57.04567017 55.88964844 57.05639648 C53.59269068 57.07397008 51.29696979 57.06235732 49 57.04882812 C47.40103927 57.05152326 45.80208013 57.05540585 44.203125 57.0604248 C40.85400774 57.06631894 37.50531757 57.05776005 34.15625 57.0390625 C29.86521409 57.01627248 25.57517889 57.02939608 21.28417969 57.05335236 C17.98299634 57.06781292 14.68204989 57.06320328 11.38085938 57.05284119 C9.79882692 57.05017459 8.21677289 57.05344135 6.63476562 57.0627594 C4.42259837 57.07292991 2.212047 57.05742003 0 57.03515625 C-1.258125 57.03197388 -2.51625 57.0287915 -3.8125 57.0255127 C-7 56.51757812 -7 56.51757812 -9.40515137 54.78503418 C-11.24515796 52.16902787 -11.50545563 50.88912377 -11.51757812 47.72070312 C-11.53649109 46.29902832 -11.53649109 46.29902832 -11.55578613 44.84863281 C-11.54768921 43.83188477 -11.53959229 42.81513672 -11.53125 41.76757812 C-11.5350769 40.71731445 -11.53890381 39.66705078 -11.54284668 38.58496094 C-11.54556696 36.36587566 -11.53819777 34.14675838 -11.52148438 31.92773438 C-11.50007745 28.52987217 -11.52128325 25.13412451 -11.546875 21.73632812 C-11.54423175 19.58007345 -11.53910682 17.4238201 -11.53125 15.26757812 C-11.53934692 14.25083008 -11.54744385 13.23408203 -11.55578613 12.18652344 C-11.54317749 11.23874023 -11.53056885 10.29095703 -11.51757812 9.31445312 C-11.51439575 8.48268555 -11.51121338 7.65091797 -11.50793457 6.79394531 C-10.10634351 0.51255381 -5.71764231 0.01446253 0 0 Z " fill="#2095F2" transform="translate(19,19.482421875)"/>
<path d="M0 0 C0.69641602 -0.00700928 1.39283203 -0.01401855 2.11035156 -0.02124023 C4.40730932 -0.03881383 6.70303021 -0.02720107 9 -0.01367188 C10.59896073 -0.01636701 12.19791987 -0.0202496 13.796875 -0.02526855 C17.14599226 -0.03116269 20.49468243 -0.0226038 23.84375 -0.00390625 C28.13478591 0.01888377 32.42482111 0.00576017 36.71582031 -0.01819611 C40.01700366 -0.03265667 43.31795011 -0.02804703 46.61914062 -0.01768494 C48.20117308 -0.01501834 49.78322711 -0.0182851 51.36523438 -0.02760315 C53.57740163 -0.03777366 55.787953 -0.02226378 58 0 C59.8871875 0.00477356 59.8871875 0.00477356 61.8125 0.00964355 C65.57004749 0.60841635 66.76178432 1.49050281 69 4.51757812 C69.5078125 7.53320312 69.5078125 7.53320312 69 10.51757812 C67.3046875 12.50195312 67.3046875 12.50195312 64.875 14.26757812 C63.95847656 14.94691406 63.04195313 15.62625 62.09765625 16.32617188 C61.07542969 17.04933594 60.05320312 17.7725 59 18.51757812 C57.91474242 19.29926715 56.83012288 20.08184265 55.74609375 20.86523438 C53.42566459 22.53516945 51.09648246 24.19197336 48.76171875 25.84179688 C44.68332298 28.73079595 40.65197157 31.68248754 36.625 34.64257812 C35.96411377 35.12831299 35.30322754 35.61404785 34.62231445 36.11450195 C33.08102039 37.24815052 31.54042801 38.38275301 30 39.51757812 C27.35601338 38.25182061 24.95132423 36.88082525 22.55859375 35.18945312 C21.57246094 34.49396362 21.57246094 34.49396362 20.56640625 33.78442383 C19.86386719 33.28386475 19.16132812 32.78330566 18.4375 32.26757812 C17.7053125 31.74832764 16.973125 31.22907715 16.21875 30.6940918 C-8.22937963 13.28819849 -8.22937963 13.28819849 -11 10.51757812 C-11.3842186 7.05961068 -11.50423242 5.20821313 -9.41796875 2.35070801 C-6.15733558 -0.12126939 -4.07019977 0.0102954 0 0 Z " fill="#2095F2" transform="translate(19,19.482421875)"/>
<path d="M0 0 C3.43341781 1.25622875 6.19599814 2.6789802 9.1171875 4.87109375 C9.88208496 5.44085938 10.64698242 6.010625 11.43505859 6.59765625 C12.24023926 7.20480469 13.04541992 7.81195313 13.875 8.4375 C15.12724365 9.365625 15.12724365 9.365625 16.40478516 10.3125 C20.44318326 13.30880528 24.44898192 16.33871274 28.40625 19.44140625 C29.07930176 19.95968994 29.75235352 20.47797363 30.44580078 21.01196289 C31.70614866 21.9840991 32.9552176 22.97108552 34.19091797 23.97436523 C36.05428441 25.46673821 36.05428441 25.46673821 39 27 C43.32477241 26.24614059 46.37675717 23.32534206 49.75 20.625 C57.05746752 14.8562865 64.65535615 9.53030406 72.29345703 4.21142578 C73.67902876 3.22784825 75.03078908 2.19676568 76.37109375 1.15234375 C78 0 78 0 80 0 C79.93359375 2.15625 79.93359375 2.15625 79 5 C76.72279664 7.04018219 74.55037565 8.75655347 72.0625 10.5 C71.35899414 11.00974365 70.65548828 11.5194873 69.93066406 12.04467773 C68.42122491 13.13598832 66.90721222 14.22099537 65.38916016 15.30029297 C62.94080001 17.04211632 60.50613848 18.80171415 58.07421875 20.56640625 C54.3413379 23.27389353 50.60047951 25.96989619 46.85253906 28.65649414 C44.88534352 30.08315164 42.94040939 31.53717615 41 33 C38.35601338 31.73424249 35.95132423 30.36324713 33.55859375 28.671875 C32.90117188 28.2085376 32.24375 27.7452002 31.56640625 27.26782227 C28.5414238 25.11113467 25.51736977 22.95327269 22.49951172 20.78662109 C19.90667446 18.93329202 17.29926062 17.10165258 14.69140625 15.26953125 C12.96025435 14.03481143 11.22977014 12.79915485 9.5 11.5625 C8.66911865 10.9840332 7.8382373 10.40556641 6.98217773 9.80957031 C6.21462158 9.25495117 5.44706543 8.70033203 4.65625 8.12890625 C3.63241211 7.40296265 3.63241211 7.40296265 2.58789062 6.66235352 C0.56631315 4.54597575 0.33705365 2.86101563 0 0 Z " fill="#0E4BA5" transform="translate(8,26)"/>
</svg>
